<svg id="Layer_1" data-name="Layer 1" xmlns="http://www.w3.org/2000/svg" viewBox="0 0 200 200"><polygon points="-2.95 -4.53 -4.11 204.46 206.97 207.24 202.57 -4.53 -2.95 -4.53"/><path d="M100,35.93c-24.8.18-41.68,19.23-41.32,39.9S73.1,100.44,72.2,124.52s-43.13,16.53-50.32,39.54a124.08,124.08,0,0,0-5.39,43.18L100,205.83" fill="#0d0d0d"/><path d="M100,35.93c24.8.18,41.68,19.23,41.32,39.9s-14.42,24.61-13.52,48.69,43.13,16.53,50.32,39.54a124.08,124.08,0,0,1,5.39,43.18L100,205.83" fill="#0d0d0d"/></svg>